<svg width="640" height="640" viewBox="0 0 640 640" fill="none" xmlns="http://www.w3.org/2000/svg">
<path d="M264 301.198C295.8 285.998 312.4 262.998 312.4 227.198C312.4 156.598 259.8 139.398 199.1 139.398H32V493.798H203.8C268.2 493.798 328.7 462.898 328.7 390.898C328.7 346.398 307.6 313.498 264 301.198ZM109.9 199.898H183C211.1 199.898 236.4 207.798 236.4 240.398C236.4 270.498 216.7 282.598 188.9 282.598H109.9V199.898ZM193.2 433.598H109.9V335.998H194.8C229.1 335.998 250.8 350.298 250.8 386.598C250.8 422.398 224.9 433.598 193.2 433.598ZM551.7 192.898H408V157.998H551.7V192.898ZM608 369.198C608 293.298 563.6 229.998 483.1 229.998C404.9 229.998 351.8 288.798 351.8 365.798C351.8 445.698 402.1 500.498 483.1 500.498C544.4 500.498 584.1 472.898 603.2 414.198H541C534.3 436.098 506.7 447.698 485.3 447.698C444 447.698 422.3 423.498 422.3 382.398H607.4C607.7 378.198 608 373.698 608 369.198ZM422.4 337.998C424.7 304.298 447.1 283.198 480.9 283.198C516.3 283.198 534.1 303.998 537.1 337.998H422.4Z" fill="currentColor"/>
</svg>